<?xml version="1.0" encoding="UTF-8"?>
<svg xmlns="http://www.w3.org/2000/svg" xmlns:xlink="http://www.w3.org/1999/xlink" width="22px" height="22px" viewBox="0 0 22 22" version="1.1">
<g id="surface1">
<path style=" stroke:none;fill-rule:nonzero;fill:rgb(93.72549%,93.72549%,93.72549%);fill-opacity:1;" d="M 5.121094 2.546875 C 9.347656 2.546875 12.25 0.355469 14.285156 0.355469 C 16.324219 0.355469 20.601562 1.527344 20.601562 10.898438 C 20.601562 20.269531 14.847656 21.644531 12.605469 21.644531 C 2.113281 21.644531 -2.367188 2.546875 5.121094 2.546875 Z M 5.121094 2.546875 "/>
<path style=" stroke:none;fill-rule:nonzero;fill:rgb(64.313725%,68.627451%,75.686275%);fill-opacity:1;" d="M 6.257812 5.492188 L 7.125 4.628906 L 7.554688 5.058594 L 6.691406 5.925781 Z M 6.257812 5.492188 "/>
<path style=" stroke:none;fill-rule:nonzero;fill:rgb(64.313725%,68.627451%,75.686275%);fill-opacity:1;" d="M 3.773438 7.976562 L 4.636719 7.113281 L 5.070312 7.546875 L 4.207031 8.410156 Z M 3.773438 7.976562 "/>
<path style=" stroke:none;fill-rule:nonzero;fill:rgb(64.313725%,68.627451%,75.686275%);fill-opacity:1;" d="M 3.773438 4.953125 L 4.207031 4.519531 L 5.070312 5.382812 L 4.640625 5.816406 Z M 3.773438 4.953125 "/>
<path style=" stroke:none;fill-rule:nonzero;fill:rgb(64.313725%,68.627451%,75.686275%);fill-opacity:1;" d="M 14.503906 7.035156 C 13.996094 7.035156 13.585938 6.625 13.585938 6.117188 C 13.585938 5.613281 13.996094 5.203125 14.503906 5.203125 C 15.007812 5.203125 15.417969 5.613281 15.417969 6.117188 C 15.417969 6.625 15.007812 7.035156 14.503906 7.035156 Z M 14.503906 5.8125 C 14.335938 5.8125 14.199219 5.949219 14.199219 6.117188 C 14.199219 6.289062 14.335938 6.425781 14.503906 6.425781 C 14.671875 6.425781 14.808594 6.289062 14.808594 6.117188 C 14.808594 5.949219 14.671875 5.8125 14.503906 5.8125 Z M 14.503906 5.8125 "/>
<path style=" stroke:none;fill-rule:nonzero;fill:rgb(18.431373%,87.45098%,51.764706%);fill-opacity:1;" d="M 16.652344 12.226562 C 16.652344 11.804688 16.339844 11.460938 15.949219 11.460938 L 10.335938 11.460938 C 9.945312 11.460938 9.632812 11.804688 9.632812 12.226562 C 9.632812 12.648438 9.945312 12.992188 10.335938 12.992188 L 15.949219 12.992188 C 16.339844 12.992188 16.652344 12.648438 16.652344 12.226562 Z M 16.652344 12.226562 "/>
<path style=" stroke:none;fill-rule:nonzero;fill:rgb(95.294118%,95.294118%,94.509804%);fill-opacity:1;" d="M 5.566406 14.542969 L 7.980469 17.042969 C 8.523438 17.605469 9.277344 17.875 10.105469 17.875 C 10.9375 17.875 11.691406 17.582031 12.234375 17.019531 L 13.683594 15.507812 C 13.96875 15.214844 13.960938 14.726562 13.664062 14.417969 C 13.367188 14.113281 12.894531 14.101562 12.609375 14.398438 L 11.113281 15.890625 C 10.851562 16.160156 10.496094 16.269531 10.101562 16.269531 C 9.703125 16.269531 9.347656 16.160156 9.085938 15.890625 L 6.683594 13.390625 C 6.421875 13.121094 6.292969 12.730469 6.292969 12.324219 C 6.292969 11.914062 6.421875 11.546875 6.683594 11.277344 L 9.078125 8.769531 C 9.460938 8.421875 9.835938 8.351562 10.101562 8.351562 C 10.496094 8.351562 10.664062 8.445312 11.113281 8.777344 L 12.609375 9.964844 C 12.894531 10.261719 13.367188 10.25 13.664062 9.945312 C 13.960938 9.636719 13.96875 9.148438 13.683594 8.855469 L 12.238281 7.652344 C 11.605469 7.109375 11.257812 6.953125 10.898438 6.886719 L 10.878906 6.882812 L 12.25 5.449219 C 12.535156 5.15625 12.523438 4.667969 12.226562 4.359375 C 11.929688 4.054688 11.457031 4.042969 11.171875 4.339844 L 5.566406 10.125 C 5.023438 10.6875 4.738281 11.464844 4.738281 12.324219 C 4.734375 13.183594 5.019531 13.984375 5.566406 14.542969 Z M 5.566406 14.542969 "/>
<path style=" stroke:none;fill-rule:nonzero;fill:rgb(0%,72.156863%,44.313725%);fill-opacity:1;" d="M 11.007812 12.226562 C 11.007812 11.804688 11.320312 11.460938 11.710938 11.460938 L 10.335938 11.460938 C 9.945312 11.460938 9.632812 11.804688 9.632812 12.226562 C 9.632812 12.648438 9.945312 12.992188 10.335938 12.992188 L 11.710938 12.992188 C 11.324219 12.992188 11.007812 12.648438 11.007812 12.226562 Z M 11.007812 12.226562 "/>
<path style=" stroke:none;fill-rule:nonzero;fill:rgb(83.529412%,85.882353%,88.235294%);fill-opacity:1;" d="M 11.109375 8.777344 L 12.609375 9.964844 C 12.894531 10.261719 13.367188 10.25 13.664062 9.945312 C 13.707031 9.898438 13.730469 9.84375 13.761719 9.792969 L 12.488281 8.777344 C 12.039062 8.445312 11.871094 8.351562 11.476562 8.351562 C 11.285156 8.351562 11.035156 8.394531 10.769531 8.542969 C 10.867188 8.605469 10.976562 8.679688 11.109375 8.777344 Z M 11.109375 8.777344 "/>
<path style=" stroke:none;fill-rule:nonzero;fill:rgb(83.529412%,85.882353%,88.235294%);fill-opacity:1;" d="M 9.355469 17.042969 L 6.941406 14.542969 C 6.394531 13.984375 6.109375 13.183594 6.109375 12.324219 C 6.109375 11.464844 6.394531 10.691406 6.941406 10.128906 L 12.347656 4.546875 C 12.3125 4.480469 12.28125 4.417969 12.226562 4.363281 C 11.929688 4.054688 11.457031 4.046875 11.171875 4.339844 L 5.566406 10.125 C 5.019531 10.691406 4.734375 11.464844 4.734375 12.324219 C 4.734375 13.183594 5.019531 13.980469 5.566406 14.542969 L 7.980469 17.042969 C 8.523438 17.605469 9.277344 17.875 10.105469 17.875 C 10.34375 17.875 10.566406 17.84375 10.785156 17.796875 C 10.234375 17.6875 9.742188 17.441406 9.355469 17.042969 Z M 9.355469 17.042969 "/>
<path style=" stroke:none;fill-rule:nonzero;fill:rgb(83.529412%,85.882353%,88.235294%);fill-opacity:1;" d="M 12.484375 15.890625 L 13.78125 14.597656 C 13.746094 14.539062 13.714844 14.472656 13.664062 14.417969 C 13.367188 14.113281 12.894531 14.101562 12.609375 14.398438 L 11.109375 15.890625 C 11.015625 15.988281 10.90625 16.058594 10.785156 16.117188 C 10.992188 16.21875 11.222656 16.269531 11.472656 16.269531 C 11.871094 16.269531 12.226562 16.160156 12.484375 15.890625 Z M 12.484375 15.890625 "/>
<path style=" stroke:none;fill-rule:nonzero;fill:rgb(0%,0%,0%);fill-opacity:1;" d="M 15.949219 13.449219 L 10.335938 13.449219 C 9.695312 13.449219 9.175781 12.902344 9.175781 12.226562 C 9.175781 11.550781 9.695312 11.003906 10.335938 11.003906 L 15.949219 11.003906 C 16.589844 11.003906 17.109375 11.550781 17.109375 12.226562 C 17.109375 12.902344 16.589844 13.449219 15.949219 13.449219 Z M 10.335938 11.921875 C 10.203125 11.921875 10.09375 12.0625 10.09375 12.226562 C 10.09375 12.390625 10.203125 12.53125 10.335938 12.53125 L 15.949219 12.53125 C 16.082031 12.53125 16.195312 12.390625 16.195312 12.226562 C 16.195312 12.0625 16.082031 11.921875 15.949219 11.921875 Z M 10.335938 11.921875 "/>
<path style=" stroke:none;fill-rule:nonzero;fill:rgb(0%,0%,0%);fill-opacity:1;" d="M 10.105469 18.332031 C 9.117188 18.332031 8.265625 17.996094 7.648438 17.363281 L 5.234375 14.863281 C 4.617188 14.226562 4.277344 13.324219 4.277344 12.324219 C 4.277344 11.339844 4.617188 10.445312 5.234375 9.808594 L 10.84375 4.019531 C 11.0625 3.792969 11.363281 3.667969 11.679688 3.667969 C 12.011719 3.667969 12.320312 3.800781 12.558594 4.042969 C 13.023438 4.527344 13.035156 5.300781 12.578125 5.769531 L 11.695312 6.695312 C 11.945312 6.832031 12.214844 7.027344 12.535156 7.304688 L 13.976562 8.503906 C 14.46875 9.007812 14.457031 9.78125 13.992188 10.261719 C 13.757812 10.507812 13.445312 10.640625 13.113281 10.640625 C 12.796875 10.640625 12.5 10.511719 12.277344 10.285156 L 10.824219 9.136719 C 10.417969 8.835938 10.347656 8.8125 10.097656 8.8125 C 9.839844 8.8125 9.609375 8.910156 9.386719 9.109375 L 7.011719 11.59375 C 6.839844 11.773438 6.75 12.023438 6.75 12.324219 C 6.75 12.628906 6.84375 12.902344 7.011719 13.074219 L 9.417969 15.574219 C 9.570312 15.730469 9.800781 15.8125 10.097656 15.8125 C 10.398438 15.8125 10.628906 15.730469 10.78125 15.574219 L 12.285156 14.074219 C 12.5 13.851562 12.796875 13.726562 13.113281 13.722656 C 13.445312 13.722656 13.757812 13.859375 13.992188 14.101562 C 14.457031 14.582031 14.46875 15.359375 14.011719 15.828125 L 12.566406 17.335938 C 11.941406 17.980469 11.070312 18.332031 10.105469 18.332031 Z M 11.679688 4.582031 C 11.632812 4.582031 11.5625 4.597656 11.5 4.660156 L 5.894531 10.445312 C 5.441406 10.910156 5.195312 11.578125 5.195312 12.324219 C 5.195312 13.085938 5.441406 13.761719 5.894531 14.226562 L 8.308594 16.726562 C 8.75 17.175781 9.371094 17.417969 10.105469 17.417969 C 10.828125 17.417969 11.453125 17.167969 11.90625 16.699219 L 13.351562 15.191406 C 13.46875 15.074219 13.457031 14.867188 13.332031 14.738281 C 13.273438 14.675781 13.195312 14.640625 13.113281 14.640625 C 13.066406 14.640625 12.996094 14.652344 12.9375 14.714844 L 11.433594 16.214844 C 11.113281 16.550781 10.648438 16.730469 10.097656 16.730469 C 9.550781 16.730469 9.085938 16.550781 8.757812 16.210938 L 6.351562 13.710938 C 6.019531 13.363281 5.832031 12.871094 5.832031 12.324219 C 5.832031 11.789062 6.019531 11.304688 6.351562 10.960938 L 8.75 8.453125 C 9.15625 8.078125 9.617188 7.894531 10.097656 7.894531 C 10.636719 7.894531 10.902344 8.050781 11.382812 8.410156 L 12.894531 9.605469 C 12.996094 9.710938 13.066406 9.722656 13.113281 9.722656 C 13.195312 9.722656 13.273438 9.6875 13.332031 9.625 C 13.457031 9.496094 13.46875 9.289062 13.355469 9.171875 L 11.941406 8.003906 C 11.316406 7.464844 11.039062 7.378906 10.816406 7.339844 C 10.648438 7.308594 10.503906 7.1875 10.453125 7.027344 C 10.398438 6.867188 10.429688 6.6875 10.546875 6.566406 L 11.914062 5.132812 C 12.03125 5.015625 12.019531 4.808594 11.898438 4.679688 C 11.839844 4.617188 11.761719 4.582031 11.679688 4.582031 Z M 11.679688 4.582031 "/>
</g>
</svg>
