<?xml version="1.0" encoding="UTF-8"?>
<svg xmlns="http://www.w3.org/2000/svg" xmlns:xlink="http://www.w3.org/1999/xlink" width="21px" height="21px" viewBox="0 0 21 21" version="1.1">
<g id="surface1">
<path style=" stroke:none;fill-rule:evenodd;fill:rgb(7.058824%,6.27451%,5.490196%);fill-opacity:1;" d="M 10.5 21 C 16.300781 21 21 16.300781 21 10.5 C 21 4.699219 16.300781 0 10.5 0 C 4.699219 0 0 4.699219 0 10.5 C 0 16.300781 4.699219 21 10.5 21 Z M 10.5 21 "/>
<path style=" stroke:none;fill-rule:nonzero;fill:rgb(100%,100%,100%);fill-opacity:1;" d="M 5.160156 7.132812 C 5.175781 6.957031 5.113281 6.785156 4.984375 6.664062 L 3.675781 5.054688 L 3.675781 4.8125 L 7.734375 4.8125 L 10.871094 11.855469 L 13.628906 4.8125 L 17.5 4.8125 L 17.5 5.054688 L 16.382812 6.148438 C 16.285156 6.226562 16.238281 6.347656 16.257812 6.472656 L 16.257812 14.527344 C 16.238281 14.652344 16.285156 14.773438 16.382812 14.851562 L 17.472656 15.945312 L 17.472656 16.1875 L 11.984375 16.1875 L 11.984375 15.945312 L 13.113281 14.824219 C 13.226562 14.710938 13.226562 14.675781 13.226562 14.503906 L 13.226562 7.988281 L 10.082031 16.160156 L 9.65625 16.160156 L 5.996094 7.988281 L 5.996094 13.464844 C 5.964844 13.695312 6.039062 13.929688 6.199219 14.09375 L 7.671875 15.921875 L 7.671875 16.160156 L 3.5 16.160156 L 3.5 15.921875 L 4.96875 14.09375 C 5.128906 13.925781 5.199219 13.695312 5.160156 13.464844 Z M 5.160156 7.132812 "/>
</g>
</svg>
