<?xml version="1.0" standalone="no"?>
<!DOCTYPE svg PUBLIC "-//W3C//DTD SVG 1.0//EN" "http://www.w3.org/TR/2001/REC-SVG-20010904/DTD/svg10.dtd">
<svg xmlns="http://www.w3.org/2000/svg" xmlns:xlink="http://www.w3.org/1999/xlink" id="body_1" width="99" height="74">

<g transform="matrix(0.7262022 0 0 0.7262022 4.882143 -0)">
	<g>
        <path d="M3.34 0L119.53999 0C 121.37999 0 122.87999 1.5 122.87999 3.34L122.87999 3.34L122.87999 80.32C 122.87999 82.159996 121.37999 83.659996 119.53999 83.659996L119.53999 83.659996L3.34 83.659996C 1.5 83.66 0 82.16 0 80.32L0 80.32L0 3.34C 0 1.5 1.5 0 3.34 0zM81.7 67.73L65.64 58L65.64 51.83L81.7 42.1L81.7 49.43L71.939995 54.93L81.7 60.43L81.7 67.73zM91.67 67.73L107.73 58L107.73 51.83L91.67 42.1L91.67 49.43L101.43 54.93L91.67 60.43L91.67 67.73zM38.64 43.98L42.47 47.809998C 43.48 48.819996 43.48 50.469997 42.47 51.469997L42.47 51.469997L39.39 54.549995C 40.239998 56.139996 40.89 57.849995 41.3 59.649994L41.3 59.649994L45.29 59.649994C 46.71 59.649994 47.88 60.819992 47.88 62.239994L47.88 62.239994L47.88 67.649994C 47.88 69.06999 46.710003 70.23999 45.29 70.23999L45.29 70.23999L40.93 70.23999C 40.54 71.51999 40.04 72.73999 39.420002 73.899994L39.420002 73.899994L114.93001 73.899994C 116.55001 73.899994 117.880005 72.56999 117.880005 70.95L117.880005 70.95L117.880005 8.19C 117.880005 6.5699997 116.560005 5.24 114.93001 5.24L114.93001 5.24L7.96 5.24C 6.33 5.24 5 6.57 5.01 8.19L5.01 8.19L5.01 42.8C 6.0200005 42.01 7.51 42.07 8.43 43.01L8.43 43.01L11.51 46.089996C 13.1 45.239998 14.81 44.589996 16.61 44.179996L16.61 44.179996L16.61 40.189995C 16.61 38.769997 17.78 37.609993 19.2 37.609993L19.2 37.609993L24.61 37.609993C 26.03 37.609993 27.2 38.77999 27.2 40.199993L27.2 40.199993L27.2 44.54999C 28.960001 45.089993 30.630001 45.84999 32.15 46.80999L32.15 46.80999L34.97 43.97999C 35.99 42.97 37.63 42.97 38.64 43.98zM21.22 52.3C 27.82 52.3 33.17 57.649998 33.17 64.26C 33.17 68.22 31.249998 71.73 28.279999 73.9L28.279999 73.9L14.16 73.9C 11.19 71.73 9.27 68.22 9.27 64.26C 9.27 57.65 14.62 52.3 21.22 52.3zM13.65 24.25L21.32 24.25C 21.91 24.25 22.39 24.75 22.39 25.32L22.39 25.32L22.39 27.5C 22.39 28.08 21.89 28.57 21.32 28.57L21.32 28.57L13.65 28.57C 13.07 28.57 12.58 28.09 12.58 27.5L12.58 27.5L12.58 25.32C 12.57 24.73 13.05 24.25 13.65 24.25zM26.35 13.12L56.03 13.12C 56.62 13.12 57.1 13.61 57.1 14.19L57.1 14.19L57.1 16.369999C 57.1 16.96 56.609997 17.439999 56.03 17.439999L56.03 17.439999L26.35 17.439999C 25.76 17.439999 25.28 16.96 25.28 16.369999L25.28 16.369999L25.28 14.189999C 25.28 13.6 25.76 13.12 26.35 13.12zM13.65 13.12L21.32 13.12C 21.91 13.12 22.39 13.599999 22.39 14.19L22.39 14.19L22.39 16.369999C 22.39 16.96 21.91 17.439999 21.32 17.439999L21.32 17.439999L13.65 17.439999C 13.059999 17.439999 12.58 16.96 12.58 16.369999L12.58 16.369999L12.58 14.189999C 12.57 13.6 13.05 13.12 13.65 13.12zM38.36 24.25L87.61 24.25C 88.2 24.25 88.68 24.75 88.68 25.32L88.68 25.32L88.68 27.5C 88.68 28.07 88.18 28.57 87.61 28.57L87.61 28.57L38.36 28.57C 37.78 28.57 37.29 28.09 37.29 27.5L37.29 27.5L37.29 25.32C 37.29 24.73 37.77 24.25 38.36 24.25zM26.21 24.25L33.879997 24.25C 34.469997 24.25 34.949997 24.75 34.949997 25.32L34.949997 25.32L34.949997 27.5C 34.949997 28.08 34.449997 28.57 33.879997 28.57L33.879997 28.57L26.209997 28.57C 25.629997 28.57 25.139997 28.09 25.139997 27.5L25.139997 27.5L25.139997 25.32C 25.13 24.73 25.62 24.25 26.21 24.25zM46.29 88.27L76.59 88.27C 76.67 93.509995 78.829994 98.2 84.67999 101.899994L84.67999 101.899994L38.2 101.899994C 42.88 98.51 46.31 94.39 46.29 88.27z" stroke="none" fill="#000000" fill-rule="nonzero" />
	</g>
</g>
</svg>