<?xml version="1.0" standalone="no"?>
<!DOCTYPE svg PUBLIC "-//W3C//DTD SVG 1.0//EN" "http://www.w3.org/TR/2001/REC-SVG-20010904/DTD/svg10.dtd">
<svg xmlns="http://www.w3.org/2000/svg" xmlns:xlink="http://www.w3.org/1999/xlink" id="body_1" width="99" height="75">

<g transform="matrix(1.1000001 0 0 1.1029413 0 0)">
	<g transform="matrix(0.1478261 0 0 0.1478261 11.000003 -0)">
        <path d="M370.898 143.68C 370.694 143.57199 370.48502 143.46799 370.281 143.35999C 370.29 143.12898 370.30402 142.89598 370.312 142.66599C 372.02103 94.191986 356.991 58.275986 327.99103 41.53298C 298.99002 24.788982 260.37103 29.730982 219.24603 55.448982C 219.05003 55.570984 218.85603 55.69998 218.66003 55.823982C 218.46503 55.70098 218.27003 55.571983 218.07404 55.448982C 176.949 29.732 138.33 24.79 109.329 41.533C 80.329 58.276 65.299 94.193 67.008 142.666C 67.01601 142.896 67.031006 143.13 67.039 143.36C 66.835 143.468 66.626 143.572 66.422005 143.68001C 23.59 166.437 0 197.411 0 230.898C 0 264.385 23.59 295.359 66.424 318.116C 66.628006 318.224 66.837006 318.328 67.041 318.436C 67.032 318.667 67.018 318.9 67.01 319.13C 65.301 367.604 80.331 403.521 109.331 420.264C 120.621 426.782 133.362 430.014 147.147 430.013C 168.77301 430.012 192.96 422.055 218.076 406.348C 218.272 406.22598 218.466 406.097 218.662 405.973C 218.85701 406.09598 219.052 406.225 219.248 406.348C 244.366 422.056 268.548 430.013 290.176 430.013C 303.95898 430.013 316.705 426.781 327.992 420.264C 356.992 403.521 372.023 367.604 370.313 319.13C 370.305 318.9 370.28998 318.66602 370.28198 318.436C 370.486 318.328 370.69498 318.224 370.899 318.116C 413.73297 295.36 437.323 264.385 437.323 230.898C 437.323 197.41098 413.732 166.437 370.898 143.68zM306.005 281.326C 296.41202 297.942 285.819 313.483 274.52002 327.649C 256.60303 330.35098 237.84702 331.754 218.66101 331.754C 199.475 331.754 180.71901 330.35098 162.802 327.649C 151.503 313.48297 140.91 297.942 131.317 281.326C 121.724 264.71 113.561005 247.76498 106.943 230.89798C 113.562004 214.02998 121.724 197.08598 131.317 180.46997C 140.91 163.85396 151.504 148.31297 162.802 134.14697C 180.719 131.44498 199.474 130.04198 218.66101 130.04198C 237.84802 130.04198 256.60303 131.44598 274.52002 134.14697C 285.81903 148.31297 296.41202 163.85397 306.005 180.46997C 315.598 197.08597 323.76 214.02997 330.379 230.89798C 323.761 247.766 315.599 264.71 306.005 281.326zM340.033 259.148C 344.72498 275.30402 347.887 291.17 349.40298 306.381C 335.472 312.673 320.15 317.86902 303.813 321.88303C 310.66898 312.14703 317.198 301.94003 323.326 291.325C 329.45398 280.71 335.029 269.954 340.033 259.148zM218.661 381.865C 206.246 372.947 194.086 362.275 182.441 350.134C 194.29999 351.204 206.405 351.754 218.661 351.754C 230.91699 351.754 243.022 351.204 254.881 350.134C 243.236 362.275 231.076 372.947 218.661 381.865zM133.51 321.884C 117.173 317.869 101.851 312.675 87.92 306.382C 89.436 291.171 92.598 275.304 97.29 259.149C 102.293 269.955 107.869 280.71298 113.997 291.327C 120.125 301.94 126.654 312.148 133.51 321.884zM113.997 170.47C 107.869 181.084 102.293 191.842 97.29 202.64801C 92.598 186.492 89.436005 170.62502 87.92 155.41501C 101.851 149.12302 117.173 143.92801 133.51 139.91301C 126.654 149.648 120.125 159.856 113.997 170.47zM218.661 79.931C 231.07599 88.849 243.236 99.520996 254.881 111.662C 243.021 110.592 230.91699 110.042 218.661 110.042C 206.405 110.042 194.301 110.592 182.441 111.662C 194.087 99.521 206.247 88.85 218.661 79.931zM323.326 170.47C 317.198 159.856 310.66898 149.648 303.813 139.912C 320.15 143.927 335.472 149.121 349.40298 155.414C 347.887 170.625 344.72498 186.492 340.033 202.647C 335.029 191.842 329.454 181.084 323.326 170.47zM290.073 51.786C 300.404 51.786 309.807 54.127 317.991 58.853C 338.812 70.874 350.201 97.428 350.438 134.077C 330.67798 125.899994 308.65 119.690994 285.20898 115.632996C 269.977 97.365 253.58899 81.395 236.63098 68.371994C 255.961 57.38 274.127 51.786 290.073 51.786zM119.331 58.853C 127.517 54.127 136.916 51.786 147.249 51.786C 163.19499 51.786 181.36299 57.381 200.691 68.372C 183.733 81.395004 167.344 97.365005 152.11299 115.633C 128.67299 119.691 106.64399 125.9 86.883995 134.077C 87.122 97.428 98.51 70.874 119.331 58.853zM20 230.898C 20 206.85599 37.303 183.716 68.922 165.187C 71.721 186.388 77.357994 208.56999 85.563995 230.898C 77.357994 253.22699 71.72099 275.408 68.922 296.609C 37.303 278.08 20 254.94 20 230.898zM119.331 402.944C 98.51 390.923 87.122 364.369 86.885 327.72C 106.645004 335.897 128.673 342.106 152.114 346.164C 167.34799 364.435 183.739 380.407 200.701 393.432C 168.842 411.55 140.15 414.965 119.331 402.944zM317.992 402.944C 297.17102 414.965 268.48 411.551 236.623 393.432C 253.584 380.40802 269.976 364.435 285.21 346.164C 308.65 342.106 330.679 335.897 350.439 327.72C 350.201 364.368 338.813 390.923 317.992 402.944zM368.4 296.609C 365.60098 275.40802 359.964 253.227 351.758 230.89801C 359.964 208.56902 365.60098 186.38802 368.4 165.186C 400.01898 183.716 417.322 206.85501 417.322 230.897C 417.322 254.939 400.02 278.08 368.4 296.609z" stroke="none" fill="#59595A" fill-rule="nonzero" />
        <path d="M460 230.898C 460.00003 239.92178 456.80963 247.62405 450.42883 254.00484C 444.04807 260.38562 436.3458 263.576 427.322 263.576C 418.29822 263.576 410.59595 260.38562 404.21515 254.00484C 397.8344 247.62405 394.644 239.92178 394.64398 230.898C 394.644 221.87422 397.8344 214.17194 404.21515 207.79115C 410.59595 201.41039 418.29822 198.22 427.322 198.22C 436.3458 198.22 444.04807 201.41039 450.42883 207.79115C 456.80963 214.17194 460.00003 221.87422 460 230.898C 460.00003 231.27827 459.9934 231.65842 459.9801 232.03844" stroke="none" fill="#ABCB57" fill-rule="nonzero" />
        <path d="M148.04599 409.808C 148.04599 418.8318 144.8556 426.5341 138.47484 432.91486C 132.09406 439.29565 124.391785 442.48602 115.368 442.48602C 106.344215 442.48602 98.64194 439.29565 92.26116 432.91486C 85.88039 426.5341 82.689995 418.8318 82.689995 409.808C 82.689995 400.78424 85.88039 393.08197 92.26116 386.70117C 98.64194 380.3204 106.344215 377.13 115.368 377.13C 124.391785 377.13 132.09406 380.3204 138.47484 386.70117C 144.8556 393.08197 148.04599 400.78424 148.04599 409.808C 148.04599 410.1883 148.03937 410.56845 148.0261 410.94846" stroke="none" fill="#E5C400" fill-rule="nonzero" />
        <path d="M147.009 50.192C 147.009 59.215782 143.81862 66.91806 137.43784 73.298836C 131.05707 79.67961 123.35478 82.87 114.331 82.87C 105.30723 82.87 97.60495 79.67961 91.22417 73.298836C 84.84339 66.91806 81.653 59.215782 81.653 50.192C 81.653 41.16822 84.84339 33.465942 91.22417 27.085165C 97.60495 20.70439 105.30723 17.514 114.331 17.514C 123.35478 17.514 131.05707 20.70439 137.43784 27.085165C 143.81862 33.465942 147.009 41.16822 147.009 50.192C 147.009 50.572266 147.00238 50.952415 146.9891 51.332447" stroke="none" fill="#C8523B" fill-rule="nonzero" />
        <path d="M250.67801 231C 250.67802 240.02379 247.48764 247.72607 241.10684 254.10684C 234.72607 260.4876 227.02379 263.678 218 263.678C 208.97623 263.678 201.27394 260.4876 194.89316 254.10684C 188.51239 247.72607 185.32199 240.02379 185.32199 231C 185.32199 221.97623 188.51239 214.27396 194.89316 207.89316C 201.27394 201.51239 208.97623 198.32199 218 198.32199C 227.02379 198.32199 234.72607 201.51239 241.10684 207.89316C 247.48764 214.27396 250.67802 221.97623 250.67801 231C 250.67802 231.38028 250.67139 231.76044 250.6581 232.14044" stroke="none" fill="#808083" fill-rule="nonzero" />
		<g>
		</g>
		<g>
		</g>
		<g>
		</g>
		<g>
		</g>
		<g>
		</g>
		<g>
		</g>
		<g>
		</g>
		<g>
		</g>
		<g>
		</g>
		<g>
		</g>
		<g>
		</g>
		<g>
		</g>
		<g>
		</g>
		<g>
		</g>
		<g>
		</g>
	</g>
</g>
</svg>