<?xml version="1.0" encoding="UTF-8"?>
<svg xmlns="http://www.w3.org/2000/svg" xmlns:xlink="http://www.w3.org/1999/xlink" width="185px" height="272px" viewBox="0 0 185 271" version="1.1">
<g id="surface1">
<path style="fill:none;stroke-width:5.0665;stroke-linecap:butt;stroke-linejoin:round;stroke:rgb(0%,0%,0%);stroke-opacity:1;stroke-miterlimit:3;" d="M 752.027753 41.573045 L 956.714791 154.047454 L 1078.316947 466.14011 L 1069.193808 803.563337 L 1013.454524 1138.961072 L 941.517499 1425.723156 L 691.238585 1587.857876 L 541.266562 1626.366064 L 394.343526 1579.755906 L 152.163482 1403.442738 L 93.375211 1117.681485 L 49.808053 785.333904 L 49.808053 461.064464 L 182.558066 156.072947 L 384.196118 42.573877 L 568.61216 26.369936 Z M 752.027753 41.573045 " transform="matrix(0.163989,0,0,0.163926,0,0.0366521)"/>
<path style="fill:none;stroke-width:5.0665;stroke-linecap:butt;stroke-linejoin:round;stroke:rgb(0%,0%,0%);stroke-opacity:1;stroke-miterlimit:3;" d="M 384.196118 42.573877 L 414.971825 248.459236 L 568.61216 26.369936 L 709.603964 248.101796 L 752.027753 41.573045 " transform="matrix(0.163989,0,0,0.163926,0,0.0366521)"/>
<path style="fill:none;stroke-width:5.0665;stroke-linecap:butt;stroke-linejoin:round;stroke:rgb(0%,0%,0%);stroke-opacity:1;stroke-miterlimit:3;" d="M 182.558066 156.072947 L 414.971825 248.459236 L 709.603964 248.101796 L 558.035988 465.496718 L 414.971825 248.459236 L 198.541425 391.316033 Z M 182.558066 156.072947 " transform="matrix(0.163989,0,0,0.163926,0,0.0366521)"/>
<path style="fill:none;stroke-width:5.0665;stroke-linecap:butt;stroke-linejoin:round;stroke:rgb(0%,0%,0%);stroke-opacity:1;stroke-miterlimit:3;" d="M 198.541425 391.316033 L 558.035988 465.496718 L 232.199377 605.041239 L 198.541425 391.316033 L 49.808053 461.064464 L 124.389121 677.124944 Z M 198.541425 391.316033 " transform="matrix(0.163989,0,0,0.163926,0,0.0366521)"/>
<path style="fill:none;stroke-width:5.0665;stroke-linecap:butt;stroke-linejoin:round;stroke:rgb(0%,0%,0%);stroke-opacity:1;stroke-miterlimit:3;" d="M 928.630767 395.033407 L 887.49327 611.427498 L 558.035988 465.496718 L 928.630767 395.033407 L 997.566446 690.421707 L 1078.316947 466.14011 L 928.630767 395.033407 L 956.714791 154.047454 L 709.603964 248.101796 L 928.630767 395.033407 " transform="matrix(0.163989,0,0,0.163926,0,0.0366521)"/>
<path style="fill:none;stroke-width:5.0665;stroke-linecap:butt;stroke-linejoin:round;stroke:rgb(0%,0%,0%);stroke-opacity:1;stroke-miterlimit:3;" d="M 152.163482 1403.442738 L 244.538244 1288.82369 L 394.343526 1579.755906 L 545.506559 1408.732848 L 691.238585 1587.857876 L 851.739139 1305.528046 L 941.517499 1425.723156 " transform="matrix(0.163989,0,0,0.163926,0,0.0366521)"/>
<path style="fill:none;stroke-width:5.0665;stroke-linecap:butt;stroke-linejoin:round;stroke:rgb(0%,0%,0%);stroke-opacity:1;stroke-miterlimit:3;" d="M 93.375211 1117.681485 L 244.538244 1288.82369 L 232.913983 988.812501 Z M 93.375211 1117.681485 " transform="matrix(0.163989,0,0,0.163926,0,0.0366521)"/>
<path style="fill:none;stroke-width:5.0665;stroke-linecap:butt;stroke-linejoin:round;stroke:rgb(0%,0%,0%);stroke-opacity:1;stroke-miterlimit:3;" d="M 851.739139 1305.528046 L 1013.454524 1138.961072 L 872.915303 1007.041934 Z M 851.739139 1305.528046 " transform="matrix(0.163989,0,0,0.163926,0,0.0366521)"/>
<path style="fill:none;stroke-width:5.0665;stroke-linecap:butt;stroke-linejoin:round;stroke:rgb(0%,0%,0%);stroke-opacity:1;stroke-miterlimit:3;" d="M 444.151578 1336.41085 L 345.488281 1295.114631 L 462.326396 1296.758855 L 631.99773 1299.189446 L 646.266034 1344.346015 L 749.550451 1305.980803 L 693.263302 1121.255884 L 649.743784 1250.434649 L 749.550451 1305.980803 L 631.99773 1299.189446 L 649.743784 1250.434649 " transform="matrix(0.163989,0,0,0.163926,0,0.0366521)"/>
<path style="fill:none;stroke-width:5.0665;stroke-linecap:butt;stroke-linejoin:round;stroke:rgb(0%,0%,0%);stroke-opacity:1;stroke-miterlimit:3;" d="M 462.326396 1296.758855 L 547.698018 1249.00489 L 631.99773 1299.189446 L 545.173076 1342.797109 L 462.326396 1296.758855 " transform="matrix(0.163989,0,0,0.163926,0,0.0366521)"/>
<path style="fill:none;stroke-width:5.0665;stroke-linecap:butt;stroke-linejoin:round;stroke:rgb(0%,0%,0%);stroke-opacity:1;stroke-miterlimit:3;" d="M 649.743784 1250.434649 L 547.698018 1249.00489 L 447.391126 1243.619462 L 345.488281 1295.114631 L 405.920146 1114.964942 L 462.326396 1296.758855 L 444.151578 1336.41085 L 545.173076 1342.797109 L 646.266034 1344.346015 " transform="matrix(0.163989,0,0,0.163926,0,0.0366521)"/>
<path style="fill:none;stroke-width:5.0665;stroke-linecap:butt;stroke-linejoin:round;stroke:rgb(0%,0%,0%);stroke-opacity:1;stroke-miterlimit:3;" d="M 405.920146 1114.964942 L 512.610853 1247.122373 L 547.698018 1133.551815 L 452.083707 1131.121224 Z M 405.920146 1114.964942 " transform="matrix(0.163989,0,0,0.163926,0,0.0366521)"/>
<path style="fill:none;stroke-width:5.0665;stroke-linecap:butt;stroke-linejoin:round;stroke:rgb(0%,0%,0%);stroke-opacity:1;stroke-miterlimit:3;" d="M 405.920146 1114.964942 L 484.884132 1092.8275 L 547.698018 1133.551815 L 548.603186 1093.971308 L 612.822464 1093.971308 L 646.266034 1133.551815 L 581.30833 1249.00489 " transform="matrix(0.163989,0,0,0.163926,0,0.0366521)"/>
<path style="fill:none;stroke-width:5.0665;stroke-linecap:butt;stroke-linejoin:round;stroke:rgb(0%,0%,0%);stroke-opacity:1;stroke-miterlimit:3;" d="M 693.263302 1121.255884 L 612.822464 1093.971308 L 547.698018 1133.551815 " transform="matrix(0.163989,0,0,0.163926,0,0.0366521)"/>
<path style="fill:none;stroke-width:5.0665;stroke-linecap:butt;stroke-linejoin:round;stroke:rgb(0%,0%,0%);stroke-opacity:1;stroke-miterlimit:3;" d="M 512.610853 1247.122373 L 452.083707 1131.121224 L 484.884132 1092.8275 L 548.603186 1093.971308 L 554.534417 863.327281 L 612.822464 1093.971308 L 611.798195 884.225599 " transform="matrix(0.163989,0,0,0.163926,0,0.0366521)"/>
<path style="fill:none;stroke-width:5.0665;stroke-linecap:butt;stroke-linejoin:round;stroke:rgb(0%,0%,0%);stroke-opacity:1;stroke-miterlimit:3;" d="M 124.389121 677.124944 L 232.199377 605.041239 L 231.984995 646.194482 Z M 124.389121 677.124944 " transform="matrix(0.163989,0,0,0.163926,0,0.0366521)"/>
<path style="fill:none;stroke-width:5.0665;stroke-linecap:butt;stroke-linejoin:round;stroke:rgb(0%,0%,0%);stroke-opacity:1;stroke-miterlimit:3;" d="M 124.389121 677.124944 L 49.808053 785.333904 L 167.360774 785.333904 Z M 124.389121 677.124944 " transform="matrix(0.163989,0,0,0.163926,0,0.0366521)"/>
<path style="fill:none;stroke-width:5.0665;stroke-linecap:butt;stroke-linejoin:round;stroke:rgb(0%,0%,0%);stroke-opacity:1;stroke-miterlimit:3;" d="M 232.199377 605.041239 L 444.36596 680.389561 L 231.984995 646.194482 L 295.775509 724.235518 L 124.389121 677.124944 L 244.990828 750.185651 L 167.360774 785.333904 L 232.913983 988.812501 L 235.343644 810.378524 L 167.360774 785.333904 " transform="matrix(0.163989,0,0,0.163926,0,0.0366521)"/>
<path style="fill:none;stroke-width:5.0665;stroke-linecap:butt;stroke-linejoin:round;stroke:rgb(0%,0%,0%);stroke-opacity:1;stroke-miterlimit:3;" d="M 670.324443 685.441378 L 887.49327 611.427498 L 997.566446 690.421707 L 1069.193808 803.563337 L 952.570075 797.510689 L 997.566446 690.421707 " transform="matrix(0.163989,0,0,0.163926,0,0.0366521)"/>
<path style="fill:none;stroke-width:5.0665;stroke-linecap:butt;stroke-linejoin:round;stroke:rgb(0%,0%,0%);stroke-opacity:1;stroke-miterlimit:3;" d="M 444.36596 680.389561 L 365.187592 752.211144 L 295.775509 724.235518 Z M 444.36596 680.389561 " transform="matrix(0.163989,0,0,0.163926,0,0.0366521)"/>
<path style="fill:none;stroke-width:5.0665;stroke-linecap:butt;stroke-linejoin:round;stroke:rgb(0%,0%,0%);stroke-opacity:1;stroke-miterlimit:3;" d="M 558.035988 465.496718 L 670.324443 685.441378 L 560.251267 687.943457 L 558.035988 465.496718 L 444.36596 680.389561 L 560.251267 687.943457 L 533.596455 743.775563 L 444.36596 680.389561 L 447.629329 790.76699 L 533.596455 743.775563 L 554.534417 863.327281 L 493.745249 882.152447 L 533.596455 743.775563 " transform="matrix(0.163989,0,0,0.163926,0,0.0366521)"/>
<path style="fill:none;stroke-width:5.0665;stroke-linecap:butt;stroke-linejoin:round;stroke:rgb(0%,0%,0%);stroke-opacity:1;stroke-miterlimit:3;" d="M 887.49327 611.427498 L 888.612819 654.177305 L 997.566446 690.421707 L 870.533282 763.387097 L 818.390849 732.075365 L 997.566446 690.421707 L 888.612819 654.177305 L 818.390849 732.075365 L 670.324443 685.441378 L 888.612819 654.177305 " transform="matrix(0.163989,0,0,0.163926,0,0.0366521)"/>
<path style="fill:none;stroke-width:5.0665;stroke-linecap:butt;stroke-linejoin:round;stroke:rgb(0%,0%,0%);stroke-opacity:1;stroke-miterlimit:3;" d="M 818.390849 732.075365 L 664.774335 797.82047 L 670.324443 685.441378 L 752.718539 760.003333 " transform="matrix(0.163989,0,0,0.163926,0,0.0366521)"/>
<path style="fill:none;stroke-width:5.0665;stroke-linecap:butt;stroke-linejoin:round;stroke:rgb(0%,0%,0%);stroke-opacity:1;stroke-miterlimit:3;" d="M 670.324443 685.441378 L 573.542942 741.940705 L 560.251267 687.943457 " transform="matrix(0.163989,0,0,0.163926,0,0.0366521)"/>
<path style="fill:none;stroke-width:5.0665;stroke-linecap:butt;stroke-linejoin:round;stroke:rgb(0%,0%,0%);stroke-opacity:1;stroke-miterlimit:3;" d="M 573.542942 741.940705 L 664.774335 797.82047 L 611.798195 884.225599 Z M 573.542942 741.940705 " transform="matrix(0.163989,0,0,0.163926,0,0.0366521)"/>
<path style="fill:none;stroke-width:5.0665;stroke-linecap:butt;stroke-linejoin:round;stroke:rgb(0%,0%,0%);stroke-opacity:1;stroke-miterlimit:3;" d="M 870.533282 763.387097 L 952.570075 797.510689 L 872.915303 1007.041934 L 693.263302 1121.255884 L 851.739139 1305.528046 L 749.550451 1305.980803 L 691.238585 1587.857876 L 646.266034 1344.346015 L 545.506559 1408.732848 L 545.173076 1342.797109 L 547.698018 1299.785179 L 547.698018 1133.551815 L 646.266034 1133.551815 L 693.263302 1121.255884 L 581.30833 1249.00489 L 547.698018 1133.551815 " transform="matrix(0.163989,0,0,0.163926,0,0.0366521)"/>
<path style="fill:none;stroke-width:5.0665;stroke-linecap:butt;stroke-linejoin:round;stroke:rgb(0%,0%,0%);stroke-opacity:1;stroke-miterlimit:3;" d="M 49.808053 785.333904 L 232.913983 988.812501 L 405.920146 1114.964942 L 244.538244 1288.82369 L 345.488281 1295.114631 L 394.343526 1579.755906 L 444.151578 1336.41085 L 545.506559 1408.732848 L 541.266562 1626.366064 " transform="matrix(0.163989,0,0,0.163926,0,0.0366521)"/>
<path style="fill:none;stroke-width:5.0665;stroke-linecap:butt;stroke-linejoin:round;stroke:rgb(0%,0%,0%);stroke-opacity:1;stroke-miterlimit:3;" d="M 235.343644 810.378524 L 265.738228 815.835439 L 265.738228 743.751734 L 339.485589 745.801056 L 335.984019 814.858437 L 265.738228 815.835439 " transform="matrix(0.163989,0,0,0.163926,0,0.0366521)"/>
<path style="fill:none;stroke-width:5.0665;stroke-linecap:butt;stroke-linejoin:round;stroke:rgb(0%,0%,0%);stroke-opacity:1;stroke-miterlimit:3;" d="M 244.990828 750.185651 L 295.775509 724.235518 " transform="matrix(0.163989,0,0,0.163926,0,0.0366521)"/>
<path style="fill:none;stroke-width:5.0665;stroke-linecap:butt;stroke-linejoin:round;stroke:rgb(0%,0%,0%);stroke-opacity:1;stroke-miterlimit:3;" d="M 573.542942 741.940705 L 554.534417 863.327281 L 611.798195 884.225599 L 641.668734 1037.543469 L 664.774335 797.82047 L 736.806641 820.815768 L 773.346838 825.152704 L 847.951726 824.485483 L 952.570075 797.510689 " transform="matrix(0.163989,0,0,0.163926,0,0.0366521)"/>
<path style="fill:none;stroke-width:5.0665;stroke-linecap:butt;stroke-linejoin:round;stroke:rgb(0%,0%,0%);stroke-opacity:1;stroke-miterlimit:3;" d="M 335.984019 814.858437 L 378.788931 811.951259 L 447.629329 790.76699 L 458.896286 1037.900909 L 405.920146 1114.964942 L 303.92202 814.691631 L 232.913983 988.812501 " transform="matrix(0.163989,0,0,0.163926,0,0.0366521)"/>
<path style="fill:none;stroke-width:5.0665;stroke-linecap:butt;stroke-linejoin:round;stroke:rgb(0%,0%,0%);stroke-opacity:1;stroke-miterlimit:3;" d="M 378.788931 811.951259 L 458.896286 1037.900909 L 493.745249 882.152447 L 447.629329 790.76699 L 365.187592 752.211144 " transform="matrix(0.163989,0,0,0.163926,0,0.0366521)"/>
<path style="fill:none;stroke-width:5.0665;stroke-linecap:butt;stroke-linejoin:round;stroke:rgb(0%,0%,0%);stroke-opacity:1;stroke-miterlimit:3;" d="M 773.346838 825.152704 L 773.346838 752.71156 L 852.382285 752.71156 L 852.382285 824.485483 " transform="matrix(0.163989,0,0,0.163926,0,0.0366521)"/>
<path style="fill:none;stroke-width:5.0665;stroke-linecap:butt;stroke-linejoin:round;stroke:rgb(0%,0%,0%);stroke-opacity:1;stroke-miterlimit:3;" d="M 875.011481 816.407343 L 872.915303 1007.041934 L 1069.193808 803.563337 " transform="matrix(0.163989,0,0,0.163926,0,0.0366521)"/>
<path style="fill:none;stroke-width:5.0665;stroke-linecap:butt;stroke-linejoin:round;stroke:rgb(0%,0%,0%);stroke-opacity:1;stroke-miterlimit:3;" d="M 872.915303 1007.041934 L 805.78996 823.842092 L 693.263302 1121.255884 L 641.668734 1037.543469 L 805.78996 823.842092 " transform="matrix(0.163989,0,0,0.163926,0,0.0366521)"/>
<path style="fill:none;stroke-width:5.0665;stroke-linecap:butt;stroke-linejoin:round;stroke:rgb(0%,0%,0%);stroke-opacity:1;stroke-miterlimit:3;" d="M 736.806641 820.815768 L 641.668734 1037.543469 " transform="matrix(0.163989,0,0,0.163926,0,0.0366521)"/>
<path style="fill:none;stroke-width:5.0665;stroke-linecap:butt;stroke-linejoin:round;stroke:rgb(0%,0%,0%);stroke-opacity:1;stroke-miterlimit:3;" d="M 493.745249 882.152447 L 484.884132 1092.8275 L 458.896286 1037.900909 L 300.063147 819.719619 " transform="matrix(0.163989,0,0,0.163926,0,0.0366521)"/>
<path style="fill:none;stroke-width:5.0665;stroke-linecap:butt;stroke-linejoin:round;stroke:rgb(0%,0%,0%);stroke-opacity:1;stroke-miterlimit:3;" d="M 554.534417 863.327281 L 484.884132 1092.8275 " transform="matrix(0.163989,0,0,0.163926,0,0.0366521)"/>
</g>
</svg>
