<?xml version="1.0" encoding="UTF-8"?>
<svg xmlns="http://www.w3.org/2000/svg" xmlns:xlink="http://www.w3.org/1999/xlink" width="277px" height="270px" viewBox="0 0 279 270" version="1.1">
<g id="surface1">
<path style=" stroke:none;fill-rule:nonzero;fill:rgb(0%,0%,0%);fill-opacity:1;" d="M 130.566406 66.058594 L 130.566406 53.230469 C 129.007812 52.644531 127.496094 51.941406 126.042969 51.125 C 114.292969 44.148438 109.433594 29.609375 114.621094 16.96875 C 116.015625 13.632812 118.042969 10.597656 120.59375 8.03125 C 123.132812 5.488281 126.144531 3.46875 129.457031 2.082031 C 132.796875 0.691406 136.382812 -0.015625 139.996094 0 C 151.109375 0 161.125 6.695312 165.375 16.96875 C 168.144531 23.683594 168.144531 31.222656 165.375 37.9375 C 163.992188 41.273438 161.960938 44.304688 159.402344 46.851562 L 159.265625 46.988281 C 157.65625 48.570312 155.863281 49.960938 153.929688 51.125 C 152.492188 51.976562 150.980469 52.679688 149.40625 53.230469 L 149.40625 66.058594 L 213.816406 66.058594 C 233.0625 66.121094 248.640625 81.714844 248.691406 100.964844 L 248.691406 106.144531 L 260.632812 106.144531 C 270.496094 106.183594 278.476562 114.175781 278.5 124.039062 L 278.5 165.597656 C 278.476562 175.460938 270.496094 183.453125 260.632812 183.492188 L 248.761719 183.492188 L 248.761719 188.175781 C 248.699219 207.445312 233.082031 223.042969 213.816406 223.082031 L 125.457031 223.082031 L 72.488281 268.574219 C 71.308594 269.589844 69.773438 270.089844 68.222656 269.964844 C 66.671875 269.84375 65.238281 269.105469 64.234375 267.917969 C 63.238281 266.757812 62.726562 265.261719 62.808594 263.734375 L 65.636719 223.011719 L 65.160156 223.011719 C 45.941406 222.964844 30.371094 207.398438 30.308594 188.175781 L 30.308594 183.492188 L 18.433594 183.492188 C 8.566406 183.464844 0.570312 175.46875 0.542969 165.597656 L 0.542969 124.039062 C 0.570312 114.175781 8.550781 106.183594 18.410156 106.144531 L 30.308594 106.144531 L 30.308594 100.941406 C 30.34375 81.699219 45.921875 66.109375 65.160156 66.058594 Z M 187.671875 107.050781 C 199.363281 107.050781 208.84375 116.53125 208.84375 128.222656 C 208.84375 139.917969 199.363281 149.398438 187.671875 149.398438 C 175.980469 149.398438 166.503906 139.917969 166.503906 128.222656 C 166.503906 116.53125 175.980469 107.050781 187.671875 107.050781 Z M 91.371094 107.050781 C 103.0625 107.050781 112.542969 116.53125 112.542969 128.222656 C 112.542969 139.917969 103.0625 149.398438 91.371094 149.398438 C 79.679688 149.398438 70.203125 139.917969 70.203125 128.222656 C 70.203125 116.53125 79.679688 107.050781 91.371094 107.050781 Z M 105.800781 177.992188 C 105.480469 177.742188 105.195312 177.453125 104.941406 177.132812 C 104.210938 176.273438 103.792969 175.1875 103.765625 174.058594 C 103.746094 172.921875 104.113281 171.8125 104.804688 170.914062 C 105.066406 170.585938 105.363281 170.289062 105.6875 170.03125 C 108.246094 168.015625 111.828125 167.941406 114.464844 169.851562 C 118.328125 172.898438 122.617188 175.371094 127.195312 177.179688 C 131.140625 178.707031 135.339844 179.472656 139.566406 179.441406 C 143.851562 179.351562 148.082031 178.507812 152.074219 176.953125 C 156.707031 175.101562 161.078125 172.652344 165.078125 169.667969 C 167.773438 167.832031 171.363281 167.996094 173.875 170.078125 C 174.183594 170.359375 174.464844 170.667969 174.714844 171.003906 C 175.378906 171.921875 175.714844 173.039062 175.664062 174.171875 C 175.566406 175.304688 175.105469 176.375 174.351562 177.226562 C 174.066406 177.550781 173.738281 177.839844 173.378906 178.085938 C 168.292969 181.84375 162.714844 184.890625 156.800781 187.132812 C 151.355469 189.1875 145.59375 190.28125 139.769531 190.367188 C 133.945312 190.449219 128.148438 189.46875 122.671875 187.472656 C 116.636719 185.214844 110.984375 182.039062 105.914062 178.0625 Z M 213.792969 77.820312 L 65.160156 77.820312 C 52.40625 77.871094 42.082031 88.207031 42.046875 100.964844 L 42.046875 188.175781 C 42.082031 200.929688 52.40625 211.265625 65.160156 211.316406 L 72.328125 211.316406 C 75.554688 211.558594 77.988281 214.351562 77.78125 217.582031 L 75.519531 250.566406 L 119.167969 212.992188 C 120.265625 211.894531 121.753906 211.28125 123.308594 211.292969 L 213.773438 211.292969 C 226.527344 211.246094 236.847656 200.910156 236.886719 188.152344 L 236.886719 100.941406 C 236.863281 88.191406 226.542969 77.859375 213.792969 77.820312 Z M 213.792969 77.820312 "/>
</g>
</svg>
