<?xml version="1.0" encoding="UTF-8"?>
<svg xmlns="http://www.w3.org/2000/svg" xmlns:xlink="http://www.w3.org/1999/xlink" width="270px" height="270px" viewBox="0 0 270 270" version="1.1">
<g id="surface1">
<path style=" stroke:none;fill-rule:nonzero;fill:rgb(0%,0%,0%);fill-opacity:1;" d="M 121.003906 74.058594 C 123.421875 74.058594 125.378906 72.101562 125.378906 69.6875 L 125.378906 65.023438 C 125.378906 62.605469 123.421875 60.648438 121.003906 60.648438 C 118.589844 60.648438 116.628906 62.605469 116.628906 65.023438 L 116.628906 69.6875 C 116.628906 72.101562 118.589844 74.058594 121.003906 74.058594 Z M 121.003906 74.058594 "/>
<path style=" stroke:none;fill-rule:nonzero;fill:rgb(0%,0%,0%);fill-opacity:1;" d="M 148.996094 74.058594 C 151.410156 74.058594 153.371094 72.101562 153.371094 69.6875 L 153.371094 65.023438 C 153.371094 62.605469 151.410156 60.648438 148.996094 60.648438 C 146.578125 60.648438 144.621094 62.605469 144.621094 65.023438 L 144.621094 69.6875 C 144.621094 72.101562 146.578125 74.058594 148.996094 74.058594 Z M 148.996094 74.058594 "/>
<path style=" stroke:none;fill-rule:nonzero;fill:rgb(0%,0%,0%);fill-opacity:1;" d="M 225.59375 182.40625 L 218.683594 178.949219 L 218.683594 138.652344 C 224.101562 136.824219 228.011719 131.695312 228.011719 125.667969 C 228.011719 118.113281 221.867188 111.964844 214.308594 111.964844 L 195.355469 111.964844 L 195.355469 107.007812 C 195.355469 104.59375 193.398438 102.636719 190.984375 102.636719 L 181.359375 102.636719 L 181.359375 79.015625 C 181.359375 63.824219 174.015625 50.320312 162.691406 41.859375 C 162.695312 41.804688 162.699219 41.75 162.699219 41.695312 L 162.699219 26.6875 C 168.117188 24.859375 172.03125 19.730469 172.03125 13.703125 C 172.03125 6.148438 165.882812 0 158.324219 0 C 150.769531 0 144.621094 6.148438 144.621094 13.703125 C 144.621094 19.730469 148.535156 24.859375 153.953125 26.6875 L 153.953125 36.722656 C 148.160156 34.117188 141.75 32.65625 135 32.65625 C 128.25 32.65625 121.839844 34.117188 116.046875 36.722656 L 116.046875 26.6875 C 121.464844 24.859375 125.378906 19.730469 125.378906 13.703125 C 125.378906 6.148438 119.230469 0 111.675781 0 C 104.117188 0 97.96875 6.148438 97.96875 13.703125 C 97.96875 19.730469 101.882812 24.859375 107.300781 26.6875 L 107.300781 41.695312 C 107.300781 41.75 107.304688 41.804688 107.308594 41.859375 C 95.984375 50.320312 88.640625 63.824219 88.640625 79.015625 L 88.640625 102.636719 L 79.015625 102.636719 C 76.601562 102.636719 74.644531 104.59375 74.644531 107.007812 L 74.644531 111.964844 L 55.691406 111.964844 C 48.132812 111.964844 41.988281 118.113281 41.988281 125.667969 C 41.988281 131.695312 45.898438 136.824219 51.316406 138.652344 L 51.316406 178.949219 L 44.40625 182.40625 C 42.921875 183.144531 41.988281 184.660156 41.988281 186.316406 L 41.988281 200.3125 C 41.988281 201.96875 42.921875 203.484375 44.40625 204.226562 L 53.734375 208.890625 C 54.363281 209.203125 55.03125 209.351562 55.6875 209.351562 C 57.292969 209.351562 58.835938 208.464844 59.605469 206.933594 C 60.683594 204.773438 59.808594 202.148438 57.648438 201.066406 L 50.734375 197.609375 L 50.734375 189.019531 L 55.691406 186.542969 L 60.648438 189.019531 L 60.648438 195.648438 C 60.648438 198.0625 62.605469 200.023438 65.023438 200.023438 C 67.4375 200.023438 69.394531 198.0625 69.394531 195.648438 L 69.394531 186.316406 C 69.394531 184.660156 68.460938 183.144531 66.976562 182.40625 L 60.066406 178.949219 L 60.066406 139.375 L 74.644531 139.375 L 74.644531 158.324219 C 74.644531 173.515625 81.988281 187.023438 93.3125 195.484375 C 93.3125 195.539062 93.304688 195.59375 93.304688 195.648438 L 93.304688 223.640625 C 93.304688 229.667969 97.21875 234.792969 102.636719 236.625 L 102.636719 242.589844 L 93.011719 242.589844 C 91.375 242.589844 89.875 243.503906 89.125 244.960938 L 80.71875 261.253906 L 79.015625 261.253906 C 76.601562 261.253906 74.644531 263.210938 74.644531 265.625 C 74.644531 268.042969 76.601562 270 79.015625 270 L 121.003906 270 C 123.421875 270 125.378906 268.042969 125.378906 265.625 L 125.378906 246.964844 C 125.378906 244.550781 123.421875 242.589844 121.003906 242.589844 L 111.382812 242.589844 L 111.382812 236.625 C 116.800781 234.792969 120.710938 229.667969 120.710938 223.640625 L 120.710938 204.679688 C 120.808594 204.679688 120.90625 204.6875 121.003906 204.6875 L 148.996094 204.6875 C 149.09375 204.6875 149.191406 204.679688 149.289062 204.679688 L 149.289062 223.640625 C 149.289062 229.667969 153.199219 234.792969 158.617188 236.625 L 158.617188 242.589844 L 148.996094 242.589844 C 146.578125 242.589844 144.621094 244.550781 144.621094 246.964844 L 144.621094 265.625 C 144.621094 268.042969 146.578125 270 148.996094 270 L 190.984375 270 C 193.398438 270 195.355469 268.042969 195.355469 265.625 C 195.355469 263.210938 193.398438 261.253906 190.984375 261.253906 L 189.28125 261.253906 L 180.875 244.960938 C 180.125 243.503906 178.625 242.589844 176.988281 242.589844 L 167.363281 242.589844 L 167.363281 236.625 C 172.78125 234.792969 176.695312 229.667969 176.695312 223.640625 L 176.695312 195.648438 C 176.695312 195.59375 176.6875 195.539062 176.6875 195.484375 C 188.011719 187.023438 195.355469 173.515625 195.355469 158.324219 L 195.355469 139.375 L 209.933594 139.375 L 209.933594 178.949219 L 203.023438 182.40625 C 201.542969 183.144531 200.605469 184.660156 200.605469 186.316406 L 200.605469 195.648438 C 200.605469 198.0625 202.5625 200.023438 204.976562 200.023438 C 207.394531 200.023438 209.351562 198.0625 209.351562 195.648438 L 209.351562 189.019531 L 214.308594 186.542969 L 219.265625 189.019531 L 219.265625 197.609375 L 212.351562 201.066406 C 210.191406 202.144531 209.316406 204.773438 210.398438 206.933594 C 211.164062 208.464844 212.707031 209.351562 214.3125 209.351562 C 214.96875 209.351562 215.636719 209.203125 216.265625 208.890625 L 225.597656 204.222656 C 227.078125 203.484375 228.011719 201.96875 228.011719 200.3125 L 228.011719 186.316406 C 228.011719 184.660156 227.078125 183.144531 225.59375 182.40625 Z M 158.324219 8.746094 C 161.058594 8.746094 163.28125 10.972656 163.28125 13.703125 C 163.28125 16.4375 161.058594 18.660156 158.324219 18.660156 C 155.59375 18.660156 153.371094 16.4375 153.371094 13.703125 C 153.371094 10.972656 155.59375 8.746094 158.324219 8.746094 Z M 111.675781 8.746094 C 114.40625 8.746094 116.628906 10.972656 116.628906 13.703125 C 116.628906 16.4375 114.40625 18.660156 111.675781 18.660156 C 108.941406 18.660156 106.71875 16.4375 106.71875 13.703125 C 106.71875 10.972656 108.941406 8.746094 111.675781 8.746094 Z M 116.628906 261.253906 L 90.5625 261.253906 L 95.675781 251.339844 L 116.628906 251.339844 Z M 179.4375 261.253906 L 153.371094 261.253906 L 153.371094 251.339844 L 174.324219 251.339844 Z M 214.308594 130.625 C 211.574219 130.625 209.351562 128.402344 209.351562 125.667969 C 209.351562 122.9375 211.574219 120.710938 214.308594 120.710938 C 217.042969 120.710938 219.265625 122.9375 219.265625 125.667969 C 219.265625 128.402344 217.042969 130.625 214.308594 130.625 Z M 135 41.402344 C 155.738281 41.402344 172.613281 58.277344 172.613281 79.015625 L 172.613281 83.972656 L 97.386719 83.972656 L 97.386719 79.015625 C 97.386719 58.277344 114.261719 41.402344 135 41.402344 Z M 97.386719 92.722656 L 172.613281 92.722656 L 172.613281 102.636719 L 97.386719 102.636719 Z M 55.691406 120.710938 C 58.425781 120.710938 60.648438 122.9375 60.648438 125.667969 C 60.648438 128.402344 58.425781 130.625 55.691406 130.625 C 52.957031 130.625 50.734375 128.402344 50.734375 125.667969 C 50.734375 122.9375 52.957031 120.710938 55.691406 120.710938 Z M 68.464844 130.625 C 69.0625 129.089844 69.394531 127.417969 69.394531 125.667969 C 69.394531 123.921875 69.0625 122.25 68.464844 120.710938 L 74.644531 120.710938 L 74.644531 130.625 Z M 107.007812 228.597656 C 104.277344 228.597656 102.050781 226.371094 102.050781 223.640625 C 102.050781 220.90625 104.277344 218.683594 107.007812 218.683594 C 109.742188 218.683594 111.964844 220.90625 111.964844 223.640625 C 111.964844 226.371094 109.742188 228.597656 107.007812 228.597656 Z M 111.964844 210.867188 C 110.425781 210.269531 108.757812 209.933594 107.007812 209.933594 C 105.261719 209.933594 103.589844 210.269531 102.050781 210.867188 L 102.050781 200.621094 C 105.1875 202.03125 108.507812 203.109375 111.964844 203.796875 Z M 83.390625 158.324219 L 83.390625 111.382812 L 130.625 111.382812 L 130.625 125.960938 L 116.339844 125.960938 C 106.210938 125.960938 97.96875 134.203125 97.96875 144.332031 C 97.96875 154.460938 106.210938 162.699219 116.339844 162.699219 L 130.625 162.699219 L 130.625 195.941406 L 121.003906 195.941406 C 100.265625 195.941406 83.390625 179.066406 83.390625 158.324219 Z M 116.339844 153.953125 C 111.035156 153.953125 106.71875 149.636719 106.71875 144.332031 C 106.71875 139.023438 111.035156 134.707031 116.339844 134.707031 L 153.660156 134.707031 C 158.964844 134.707031 163.28125 139.023438 163.28125 144.332031 C 163.28125 149.636719 158.964844 153.953125 153.660156 153.953125 Z M 162.992188 228.597656 C 160.257812 228.597656 158.035156 226.371094 158.035156 223.640625 C 158.035156 220.90625 160.257812 218.683594 162.992188 218.683594 C 165.722656 218.683594 167.949219 220.90625 167.949219 223.640625 C 167.949219 226.371094 165.722656 228.597656 162.992188 228.597656 Z M 167.949219 210.867188 C 166.410156 210.269531 164.738281 209.933594 162.992188 209.933594 C 161.242188 209.933594 159.574219 210.269531 158.035156 210.867188 L 158.035156 203.796875 C 161.492188 203.109375 164.8125 202.03125 167.949219 200.621094 Z M 186.609375 158.324219 C 186.609375 179.066406 169.734375 195.941406 148.996094 195.941406 L 139.375 195.941406 L 139.375 162.699219 L 153.660156 162.699219 C 163.789062 162.699219 172.03125 154.460938 172.03125 144.332031 C 172.03125 134.203125 163.789062 125.960938 153.660156 125.960938 L 139.375 125.960938 L 139.375 111.382812 L 186.609375 111.382812 Z M 195.355469 120.710938 L 201.535156 120.710938 C 200.9375 122.25 200.605469 123.921875 200.605469 125.667969 C 200.605469 127.417969 200.9375 129.089844 201.535156 130.625 L 195.355469 130.625 Z M 195.355469 120.710938 "/>
</g>
</svg>
