<?xml version="1.0" encoding="UTF-8"?>
<svg xmlns="http://www.w3.org/2000/svg" xmlns:xlink="http://www.w3.org/1999/xlink" width="275px" height="px" viewBox="0 0 275 275" version="1.1">
<g id="surface1">
<path style=" stroke:none;fill-rule:nonzero;fill:rgb(64.705882%,64.705882%,64.705882%);fill-opacity:1;" d="M 275 251.085938 C 275 264.292969 264.292969 275 251.085938 275 L 23.914062 275 C 10.707031 275 0 264.292969 0 251.085938 C 0 237.878906 10.707031 227.171875 23.914062 227.171875 L 251.085938 227.171875 C 264.292969 227.175781 275 237.878906 275 251.085938 Z M 275 251.085938 "/>
<path style=" stroke:none;fill-rule:nonzero;fill:rgb(46.666667%,46.666667%,46.666667%);fill-opacity:1;" d="M 91.167969 257.066406 C 91.167969 259.542969 89.160156 261.550781 86.683594 261.550781 L 38.859375 261.550781 C 36.382812 261.550781 34.375 259.542969 34.375 257.066406 C 34.375 254.589844 36.382812 252.582031 38.859375 252.582031 L 86.683594 252.582031 C 89.160156 252.582031 91.167969 254.589844 91.167969 257.066406 Z M 236.140625 252.582031 L 146.46875 252.582031 C 143.992188 252.582031 141.984375 254.589844 141.984375 257.066406 C 141.984375 259.542969 143.992188 261.550781 146.46875 261.550781 L 236.140625 261.550781 C 238.617188 261.550781 240.625 259.542969 240.625 257.066406 C 240.625 254.589844 238.617188 252.582031 236.140625 252.582031 Z M 126.140625 252.582031 L 125.542969 252.582031 C 123.066406 252.582031 121.058594 254.589844 121.058594 257.066406 C 121.058594 259.542969 123.066406 261.550781 125.542969 261.550781 L 126.140625 261.550781 C 128.617188 261.550781 130.625 259.542969 130.625 257.066406 C 130.625 254.589844 128.617188 252.582031 126.140625 252.582031 Z M 107.609375 252.582031 L 107.011719 252.582031 C 104.535156 252.582031 102.527344 254.589844 102.527344 257.066406 C 102.527344 259.542969 104.535156 261.550781 107.011719 261.550781 L 107.609375 261.550781 C 110.085938 261.550781 112.09375 259.542969 112.09375 257.066406 C 112.09375 254.589844 110.085938 252.582031 107.609375 252.582031 Z M 107.609375 252.582031 "/>
<path style=" stroke:none;fill-rule:nonzero;fill:rgb(80%,79.215686%,76.862745%);fill-opacity:1;" d="M 257.066406 83.695312 L 257.066406 215.21875 C 257.066406 228.425781 246.359375 239.128906 233.152344 239.128906 L 41.847656 239.128906 C 28.640625 239.128906 17.933594 228.425781 17.933594 215.21875 L 17.933594 83.695312 C 17.933594 70.488281 28.640625 59.78125 41.847656 59.78125 L 233.152344 59.78125 C 246.359375 59.78125 257.066406 70.488281 257.066406 83.695312 Z M 257.066406 83.695312 "/>
<path style=" stroke:none;fill-rule:nonzero;fill:rgb(94.901961%,93.72549%,88.627451%);fill-opacity:1;" d="M 233.152344 227.175781 L 41.847656 227.175781 C 35.242188 227.175781 29.890625 221.820312 29.890625 215.21875 L 29.890625 83.695312 C 29.890625 77.09375 35.242188 71.738281 41.847656 71.738281 L 233.152344 71.738281 C 239.757812 71.738281 245.109375 77.09375 245.109375 83.695312 L 245.109375 215.21875 C 245.109375 221.820312 239.757812 227.175781 233.152344 227.175781 Z M 233.152344 227.175781 "/>
<path style=" stroke:none;fill-rule:nonzero;fill:rgb(74.901961%,73.333333%,63.921569%);fill-opacity:1;" d="M 218.207031 109.101562 L 56.792969 109.101562 C 51.839844 109.101562 47.824219 105.089844 47.824219 100.136719 C 47.824219 95.183594 51.839844 91.167969 56.792969 91.167969 L 218.207031 91.167969 C 223.160156 91.167969 227.175781 95.183594 227.175781 100.136719 C 227.175781 105.089844 223.160156 109.101562 218.207031 109.101562 Z M 131.523438 131.523438 C 131.523438 126.570312 127.507812 122.554688 122.554688 122.554688 L 56.792969 122.554688 C 51.839844 122.554688 47.824219 126.570312 47.824219 131.523438 C 47.824219 136.472656 51.839844 140.488281 56.792969 140.488281 L 122.554688 140.488281 C 127.507812 140.488281 131.523438 136.472656 131.523438 131.523438 Z M 227.175781 131.523438 C 227.175781 126.570312 223.160156 122.554688 218.207031 122.554688 L 152.445312 122.554688 C 147.492188 122.554688 143.476562 126.570312 143.476562 131.523438 C 143.476562 136.472656 147.492188 140.488281 152.445312 140.488281 L 218.207031 140.488281 C 223.160156 140.488281 227.175781 136.472656 227.175781 131.523438 Z M 227.175781 131.523438 "/>
<path style=" stroke:none;fill-rule:nonzero;fill:rgb(100%,84.705882%,50.196078%);fill-opacity:1;" d="M 218.207031 206.25 L 56.792969 206.25 C 51.839844 206.25 47.824219 202.234375 47.824219 197.28125 L 47.824219 161.414062 C 47.824219 156.460938 51.839844 152.445312 56.792969 152.445312 L 218.207031 152.445312 C 223.160156 152.445312 227.175781 156.460938 227.175781 161.414062 L 227.175781 197.28125 C 227.175781 202.234375 223.160156 206.25 218.207031 206.25 Z M 218.207031 206.25 "/>
<path style=" stroke:none;fill-rule:nonzero;fill:rgb(98.823529%,50.196078%,34.901961%);fill-opacity:1;" d="M 75.027344 201.003906 L 73.773438 202.253906 L 73.820312 202.300781 L 63.5625 212.558594 C 62.828125 213.292969 61.828125 213.707031 60.789062 213.707031 C 59.746094 213.707031 58.75 213.292969 58.011719 212.558594 L 47.753906 202.300781 L 47.800781 202.253906 L 46.550781 201.003906 C 42.960938 197.417969 42.960938 191.601562 46.550781 188.015625 C 50.136719 184.429688 55.949219 184.429688 59.535156 188.015625 L 60.789062 189.269531 L 62.039062 188.015625 C 65.628906 184.429688 71.441406 184.429688 75.027344 188.015625 C 78.613281 191.601562 78.613281 197.417969 75.027344 201.003906 Z M 75.027344 201.003906 "/>
<path style=" stroke:none;fill-rule:nonzero;fill:rgb(83.921569%,63.137255%,32.941176%);fill-opacity:1;" d="M 202.066406 157.03125 L 190.109375 172.972656 C 187.71875 176.160156 182.933594 176.160156 180.542969 172.972656 L 168.585938 157.03125 C 167.8125 155.996094 167.390625 154.734375 167.390625 153.441406 L 167.390625 11.957031 C 167.390625 5.351562 172.742188 0 179.347656 0 L 191.304688 0 C 197.90625 0 203.261719 5.351562 203.261719 11.957031 L 203.261719 153.441406 C 203.261719 154.734375 202.839844 155.996094 202.066406 157.03125 Z M 202.066406 157.03125 "/>
<path style=" stroke:none;fill-rule:nonzero;fill:rgb(69.803922%,41.176471%,19.607843%);fill-opacity:1;" d="M 198.777344 161.414062 L 190.109375 172.96875 C 187.71875 176.160156 182.933594 176.160156 180.542969 172.96875 L 171.875 161.414062 Z M 198.777344 161.414062 "/>
<path style=" stroke:none;fill-rule:nonzero;fill:rgb(100%,84.705882%,50.196078%);fill-opacity:1;" d="M 167.390625 137.5 L 167.390625 11.957031 C 167.390625 5.351562 172.742188 0 179.347656 0 L 191.304688 0 C 197.90625 0 203.261719 5.351562 203.261719 11.957031 L 203.261719 137.5 Z M 167.390625 137.5 "/>
<path style=" stroke:none;fill-rule:nonzero;fill:rgb(98.823529%,75.686275%,34.901961%);fill-opacity:1;" d="M 185.324219 137.5 L 185.324219 0 L 191.304688 0 C 197.90625 0 203.261719 5.351562 203.261719 11.957031 L 203.261719 137.5 Z M 185.324219 137.5 "/>
<path style=" stroke:none;fill-rule:nonzero;fill:rgb(98.823529%,50.196078%,34.901961%);fill-opacity:1;" d="M 203.261719 11.957031 L 203.261719 23.914062 L 167.390625 23.914062 L 167.390625 11.957031 C 167.390625 5.351562 172.742188 0 179.347656 0 L 191.304688 0 C 197.90625 0 203.261719 5.351562 203.261719 11.957031 Z M 203.261719 11.957031 "/>
</g>
</svg>
