<?xml version="1.0" encoding="UTF-8"?>
<svg xmlns="http://www.w3.org/2000/svg" xmlns:xlink="http://www.w3.org/1999/xlink" width="275px" height="px" viewBox="0 0 275 275" version="1.1">
<g id="surface1">
<path style=" stroke:none;fill-rule:nonzero;fill:rgb(88.627451%,87.843137%,81.568627%);fill-opacity:1;" d="M 275 32.886719 L 275 173.609375 L 0 173.609375 L 0 32.886719 C 0 28.648438 3.4375 25.207031 7.679688 25.207031 L 267.320312 25.207031 C 271.5625 25.207031 275 28.648438 275 32.886719 Z M 275 32.886719 "/>
<path style=" stroke:none;fill-rule:nonzero;fill:rgb(82.745098%,81.960784%,75.686275%);fill-opacity:1;" d="M 267.320312 25.207031 L 178.117188 25.207031 L 88.335938 173.609375 L 275 173.609375 L 275 32.886719 C 275 28.648438 271.5625 25.207031 267.320312 25.207031 Z M 267.320312 25.207031 "/>
<path style=" stroke:none;fill-rule:nonzero;fill:rgb(50.196078%,50.196078%,50.196078%);fill-opacity:1;" d="M 161.972656 199.640625 L 167.730469 243.433594 L 107.273438 243.433594 L 113.035156 199.640625 Z M 161.972656 199.640625 "/>
<path style=" stroke:none;fill-rule:nonzero;fill:rgb(60%,60%,60%);fill-opacity:1;" d="M 275 173.609375 L 275 191.953125 C 275 196.199219 271.5625 199.640625 267.320312 199.640625 L 7.679688 199.640625 C 3.4375 199.640625 0 196.199219 0 191.953125 L 0 173.609375 Z M 275 173.609375 "/>
<path style=" stroke:none;fill-rule:nonzero;fill:rgb(60%,60%,60%);fill-opacity:1;" d="M 84.210938 237.078125 L 190.789062 237.078125 L 190.789062 249.792969 L 84.210938 249.792969 Z M 84.210938 237.078125 "/>
<path style=" stroke:none;fill-rule:nonzero;fill:rgb(89.803922%,58.823529%,51.372549%);fill-opacity:1;" d="M 201.074219 129.6875 L 226.503906 129.6875 L 226.503906 148.472656 L 201.074219 148.472656 Z M 201.074219 129.6875 "/>
<path style=" stroke:none;fill-rule:nonzero;fill:rgb(89.803922%,58.823529%,51.372549%);fill-opacity:1;" d="M 150.21875 92.566406 L 175.644531 92.566406 L 175.644531 148.785156 L 150.21875 148.785156 Z M 150.21875 92.566406 "/>
<path style=" stroke:none;fill-rule:nonzero;fill:rgb(89.803922%,58.823529%,51.372549%);fill-opacity:1;" d="M 48.503906 109.371094 L 73.933594 109.371094 L 73.933594 148.785156 L 48.503906 148.785156 Z M 48.503906 109.371094 "/>
<path style=" stroke:none;fill-rule:nonzero;fill:rgb(89.803922%,58.823529%,51.372549%);fill-opacity:1;" d="M 99.359375 73.261719 L 124.789062 73.261719 L 124.789062 148.785156 L 99.359375 148.785156 Z M 99.359375 73.261719 "/>
</g>
</svg>
